<?xml version="1.0" encoding="utf-8"?>
<svg width="512px" height="273px" viewBox="0 0 512 273" version="1.1" xmlns:xlink="http://www.w3.org/1999/xlink" xmlns="http://www.w3.org/2000/svg">
  <defs>
    <path d="M0 0L512 0L512 273L0 273L0 0Z" id="path_1" />
    <clipPath id="clip_1">
      <use xlink:href="#path_1" />
    </clipPath>
  </defs>
  <g id="excellence" clip-path="url(#clip_1)">
    <path d="M0 0L512 0L512 273L0 273L0 0Z" id="excellence" fill="none" fill-rule="evenodd" stroke="none" />
    <path d="M404.63 17.755L431.52 80.652L500.1 86.7769C503.62 87.1965 506.7 88.965 508.84 91.5029C510.99 94.0607 512.19 97.3979 511.97 100.935L511.9 101.784C511.7 103.383 511.23 104.892 510.54 106.26L510.22 106.83C509.63 107.859 508.9 108.808 508.07 109.638L455.79 155.289L471.05 222.003C471.89 225.62 471.16 229.267 469.32 232.184C467.49 235.082 464.52 237.32 460.89 238.139C459.1 238.539 457.27 238.569 455.53 238.259C453.84 237.96 452.23 237.33 450.79 236.431L392.21 201.45L364.87 217.777L361.24 202.18L388.25 186.043C390.668 184.575 393.701 184.563 396.13 186.013L455.22 221.304L439.88 154.26C439.29 151.602 440.11 148.725 442.3 146.806L494.15 101.574L426.05 95.4596C423.071 95.3755 420.415 93.5643 419.25 90.8235L392.21 27.5768L374.27 69.5614L358.25 68.1226L379.8 17.7151C381.25 14.298 383.96 11.7901 387.16 10.5012C390.37 9.20225 394.07 9.1423 397.5 10.6011L398.09 10.8808C399.49 11.5503 400.73 12.4495 401.75 13.4786C402.98 14.6676 403.94 16.1464 404.63 17.755L404.63 17.755ZM262.89 4.58614L299.52 90.2939L392.44 98.6269C396.54 98.9766 399.58 102.584 399.22 106.68C399.05 108.678 398.1 110.417 396.7 111.636L326.41 172.964L347.2 263.878C348.13 267.884 345.61 271.891 341.59 272.81C339.54 273.28 337.48 272.85 335.84 271.781L256 224.081L175.9 271.931C172.37 274.039 167.8 272.89 165.68 269.353C164.687 267.711 164.374 265.746 164.81 263.878L164.8 263.868L185.6 172.964L115.3 111.636C113.81 110.336 112.898 108.498 112.767 106.525C112.636 104.553 113.295 102.61 114.6 101.125C115.924 99.6144 117.803 98.7027 119.81 98.5969L212.48 90.2939L249.13 4.54615C250.75 0.749349 255.13 -1.01916 258.92 0.599475C260.79 1.38881 262.17 2.85757 262.89 4.58612L262.89 4.58614ZM119.79 27.5768L92.75 90.8235C91.5877 93.5662 88.9298 95.3783 85.95 95.4596L17.85 101.574L69.7 146.806C71.8163 148.658 72.7456 151.52 72.12 154.26L56.79 221.304L115.87 186.013C118.38 184.515 121.4 184.624 123.75 186.043L150.8 202.2L147.23 217.836L119.79 201.45L61.21 236.441C59.77 237.33 58.16 237.96 56.47 238.259C54.73 238.569 52.9 238.539 51.12 238.139C47.47 237.32 44.51 235.082 42.68 232.184C40.85 229.257 40.12 225.62 40.95 222.003L56.21 155.289L3.92999 109.638C3.09999 108.808 2.36999 107.859 1.77998 106.83L1.46999 106.26C0.769985 104.892 0.299985 103.383 0.099985 101.784L0.029985 100.965C-0.190015 97.4079 1.00998 94.0708 3.15999 91.5029C5.29998 88.9551 8.37998 87.1966 11.91 86.7769L80.48 80.6521L107.37 17.755C108.06 16.1464 109.03 14.6677 110.23 13.4687C111.27 12.4495 112.5 11.5603 113.9 10.8908L114.51 10.6011C117.92 9.14231 121.63 9.20226 124.84 10.4912C128.04 11.7901 130.75 14.298 132.2 17.7151L153.74 68.1026L137.74 69.5414L119.79 27.5768L119.79 27.5768Z" id="Forme" fill="#FFFFFF" fill-rule="evenodd" stroke="none" />
  </g>
</svg>