<?xml version="1.0" encoding="utf-8"?>
<svg width="104.18px" height="122.88px" viewBox="0 0 104.18 122.88" version="1.1" xmlns:xlink="http://www.w3.org/1999/xlink" xmlns="http://www.w3.org/2000/svg">
  <defs>
    <path d="M0 0L104.18 0L104.18 122.88L0 122.88L0 0Z" id="path_1" />
    <clipPath id="clip_1">
      <use xlink:href="#path_1" />
    </clipPath>
  </defs>
  <g id="listen" clip-path="url(#clip_1)">
    <path d="M0 0L104.18 0L104.18 122.88L0 122.88L0 0Z" id="listen" fill="none" fill-rule="evenodd" stroke="none" />
    <path d="M10.78 78.63C10.83 78.35 10.87 78.05 10.89 77.76C8.29 74.39 7.89 71.32 8.62 69.24C9.01 68.13 9.72 67.28 10.6 66.8C11.5 66.31 12.56 66.18 13.63 66.52C15.46 67.1 17.34 69.04 18.39 72.83C18.69 73.91 18.81 74.96 18.78 75.94C18.75 76.96 18.54 77.93 18.2 78.83C18.17 78.96 18.13 79.08 18.08 79.2L18.06 79.24C18 79.37 17.93 79.5 17.85 79.61C17.27 80.78 16.44 81.82 15.42 82.73C14.41 83.62 13.21 84.38 11.89 84.97C11.71 85.32 11.55 85.69 11.41 86.07C11.24 86.52 11.09 87 10.97 87.48C10.76 88.34 10.63 89.21 10.59 90.07C10.55 90.91 10.61 91.74 10.75 92.51L10.77 92.62C11.03 92.48 11.34 92.27 11.69 92C12.31 91.51 13.04 90.83 13.86 89.98C14.85 88.95 15.93 87.88 17.07 86.78C18.22 85.67 19.4 84.55 20.62 83.41C24.37 79.87 28.4 76.07 31.68 72.27C34.93 68.52 37.45 64.77 38.26 61.3C38.95 58.34 38.26 55.49 35.46 52.88C32.65 50.27 27.76 47.89 20.08 45.87C20.28 46.99 20.59 48.12 21.02 49.26C21.56 50.71 22.29 52.17 23.21 53.64L23.24 53.68C23.55 54.18 23.63 54.76 23.51 55.29C23.39 55.82 23.06 56.31 22.56 56.62L22.55 56.62C22.05 56.93 21.47 57.01 20.94 56.89C20.42 56.77 19.95 56.45 19.63 55.97L19.59 55.91C18.45 54.08 17.55 52.26 16.9 50.44C16.24 48.61 15.82 46.78 15.64 44.96C15.46 43.13 15.51 41.31 15.8 39.5C16.08 37.69 16.6 35.91 17.33 34.13C18.91 30.3 21.08 27.26 23.59 24.99C26.32 22.52 29.45 20.94 32.69 20.23C34.32 19.87 35.99 19.74 37.65 19.82C39.31 19.9 40.97 20.2 42.57 20.72C44.18 21.24 45.75 21.97 47.21 22.92C48.64 23.84 49.99 24.96 51.21 26.28C53.98 29.26 56.12 33.25 57.19 38.18C58.15 42.58 58.26 47.73 57.2 53.6C56.75 56.13 56.08 58.48 55.23 60.69C54.38 62.91 53.35 64.99 52.15 67C51 69 49.67 70.9 48.21 72.77C46.76 74.63 45.18 76.45 43.52 78.28C42.85 79.01 42.15 79.75 41.43 80.5C40.76 81.2 40.03 81.94 39.3 82.69C38.57 83.49 37.76 84.27 37 85.05C35.42 86.68 32.97 89.2 30.94 91.66C28.99 94.02 27.43 96.31 27.44 97.6L27.44 97.66C27.45 98.24 27.23 98.78 26.86 99.17C26.5 99.55 26 99.8 25.44 99.84L25.35 99.85C24.77 99.86 24.23 99.64 23.84 99.27C23.46 98.91 23.21 98.41 23.17 97.85L23.16 97.76C23.1 95.48 24.94 92.44 27.24 89.5C29.49 86.64 32.19 83.86 33.93 82.07C34.69 81.29 35.45 80.49 36.22 79.72C36.9 79.02 37.59 78.33 38.31 77.58C38.99 76.87 39.68 76.14 40.36 75.4C41.96 73.65 43.45 71.92 44.81 70.18C46.17 68.44 47.4 66.68 48.49 64.85C49.57 63.04 50.5 61.16 51.26 59.19C52.02 57.21 52.61 55.12 53.02 52.87C53.95 47.68 53.88 43.15 53.08 39.32C52.19 35.09 50.41 31.72 48.1 29.23C47.13 28.18 46.06 27.29 44.93 26.56C43.77 25.81 42.54 25.23 41.28 24.83C40.04 24.43 38.76 24.2 37.47 24.14C36.19 24.08 34.89 24.19 33.61 24.46C31.05 25.02 28.56 26.28 26.39 28.28C24.36 30.14 22.6 32.64 21.29 35.8C20.87 36.82 20.54 37.84 20.29 38.87C20.09 39.72 19.95 40.58 19.88 41.43C29.46 43.8 35.52 46.84 38.99 50.3C42.62 53.92 43.43 58 42.44 62.28C41.48 66.43 38.71 70.66 35.19 74.78C31.71 78.86 27.49 82.84 23.56 86.55C22.35 87.7 21.16 88.81 20.06 89.88C18.95 90.95 17.9 91.99 16.95 92.97C15.88 94.09 14.88 94.98 13.97 95.65C13.02 96.34 12.14 96.79 11.33 96.98C10.06 97.28 9 97.13 8.17 96.48C7.37 95.86 6.83 94.81 6.55 93.31C6.35 92.23 6.28 91.1 6.32 89.95C6.37 88.79 6.53 87.62 6.82 86.48C7.1 85.34 7.5 84.24 8 83.2C8.49 82.2 9.08 81.26 9.77 80.42C9.93 80.23 10.08 80.05 10.23 79.89C10.34 79.77 10.46 79.64 10.59 79.52C10.66 79.23 10.73 78.94 10.78 78.63L10.78 78.63L10.78 78.63ZM78.95 57.61C78.91 57.6 78.87 57.59 78.83 57.58C78.2 57.38 77.7 56.95 77.4 56.41C77.1 55.87 77.01 55.22 77.17 54.58C77.18 54.54 77.19 54.49 77.21 54.45C77.41 53.82 77.84 53.32 78.38 53.02C78.94 52.71 79.62 52.62 80.28 52.81L99.74 58.44C99.78 58.45 99.82 58.46 99.86 58.47C100.49 58.67 100.99 59.1 101.29 59.64C101.59 60.18 101.68 60.83 101.52 61.47C101.51 61.51 101.5 61.56 101.48 61.6C101.28 62.23 100.85 62.73 100.31 63.03C99.77 63.33 99.12 63.42 98.48 63.26C98.44 63.25 98.4 63.24 98.36 63.23L78.95 57.61L78.95 57.61L78.95 57.61ZM82.49 34.44C81.8 34.45 81.17 34.18 80.72 33.73C80.26 33.28 79.98 32.66 79.97 31.97C79.96 31.28 80.23 30.65 80.68 30.2C81.13 29.74 81.75 29.46 82.44 29.45C88.85 29.36 95.33 29.17 101.73 29.17C102.39 29.18 103 29.45 103.44 29.88C103.9 30.33 104.18 30.95 104.19 31.64L104.19 31.71C104.18 32.37 103.91 32.98 103.48 33.42C103.03 33.88 102.41 34.16 101.72 34.17L82.49 34.44L82.49 34.44L82.49 34.44ZM78.9 14.62C78.31 14.97 77.64 15.04 77.03 14.89C76.41 14.73 75.85 14.34 75.5 13.75L75.49 13.73C75.14 13.14 75.07 12.47 75.22 11.86C75.38 11.24 75.77 10.68 76.36 10.33L93.07 0.36C93.66 0.00999966 94.34 -0.0800003 94.96 0.0799996C95.56 0.23 96.11 0.61 96.46 1.17L96.52 1.27C96.85 1.85 96.92 2.51 96.77 3.11C96.62 3.71 96.24 4.26 95.68 4.61C90.13 7.96 84.49 11.39 78.9 14.62L78.9 14.62L78.9 14.62ZM0.43 110.15C0.43 86.18 -0.55 60.23 0.43 36.51C0.38 28.92 0.39 27.84 6.52 20.61C7.28 19.71 8.07 18.85 8.88 18.02C9.68 17.2 10.51 16.42 11.35 15.69C12.2 14.95 13.06 14.26 13.94 13.6C14.82 12.95 15.71 12.33 16.62 11.76C20.25 9.47 24.11 7.57 28.04 6.31C31.65 5.15 35.32 4.51 38.94 4.58C42.34 4.65 45.68 5.33 48.86 6.76C51.82 8.1 54.65 10.08 57.26 12.84C57.78 13.39 58.28 13.97 58.76 14.57C59.24 15.17 59.69 15.79 60.12 16.45C60.55 17.1 60.96 17.78 61.35 18.48C61.73 19.18 62.1 19.9 62.44 20.65C63.86 23.77 64.77 27.27 65.29 30.99C65.86 35.08 65.94 39.43 65.67 43.82C65.37 48.79 64.61 53.82 63.6 58.6C62.43 64.09 60.92 69.25 59.36 73.58C57.84 77.79 55.68 82.22 53.07 86.62C50.39 91.13 47.23 95.62 43.78 99.85C40.38 104.01 36.66 107.93 32.82 111.39C29.14 114.69 25.33 117.56 21.57 119.77C19.13 121.21 16.82 122.17 14.67 122.61C12.47 123.06 10.42 122.96 8.56 122.25C6.69 121.54 5.06 120.23 3.7 118.29C2.37 116.39 1.3 113.87 0.509999 110.67L0.499999 110.64C0.479999 110.56 0.469999 110.49 0.459999 110.42C0.45 110.32 0.44 110.24 0.43 110.15L0.43 110.15L0.43 110.15ZM4.72 38.73L4.72 109.91C5.34 112.33 6.11 114.21 7.03 115.6C7.92 116.95 8.94 117.81 10.08 118.25C11.24 118.69 12.6 118.72 14.13 118.36C15.72 117.99 17.49 117.22 19.41 116.09C22.94 114.02 26.52 111.31 30.01 108.17C33.66 104.89 37.2 101.14 40.47 97.14C43.79 93.08 46.82 88.78 49.38 84.48C51.88 80.28 53.92 76.09 55.36 72.12C56.86 67.97 58.31 63.02 59.43 57.73C60.4 53.14 61.13 48.32 61.42 43.57C61.67 39.48 61.6 35.45 61.09 31.71C60.63 28.34 59.81 25.18 58.55 22.41C58.26 21.77 57.95 21.14 57.62 20.54C57.29 19.94 56.94 19.36 56.57 18.81C56.21 18.26 55.82 17.74 55.43 17.24C55.03 16.74 54.61 16.25 54.18 15.8C51.98 13.48 49.61 11.81 47.14 10.69C44.48 9.49001 41.7 8.92001 38.87 8.86001C35.7 8.80001 32.46 9.37001 29.25 10.42C25.71 11.57 22.22 13.3 18.91 15.39C18.09 15.91 17.28 16.46 16.49 17.05C15.7 17.64 14.93 18.26 14.17 18.92C13.41 19.58 12.67 20.28 11.94 21.03C11.21 21.77 10.5 22.56 9.79 23.39C7.2 26.44 5.91 28.18 5.29 29.9C4.68 31.61 4.69 33.41 4.71 36.57C4.71 36.7 4.72 38.72 4.72 38.73L4.72 38.73L4.72 38.73Z" id="Group" fill="#FFFFFF" fill-rule="evenodd" stroke="none" />
  </g>
</svg>